<svg xmlns:xlink="http://www.w3.org/1999/xlink" xmlns="http://www.w3.org/2000/svg" class="icon--svg header-mega__button-icon" aria-hidden="true" width="24"  height="24" ><defs><symbol id="ico-hamburger" viewBox="0 0 24 24">
  <g fill="none" fill-rule="evenodd">
    <path d="M0 0h24v24H0z" fill="none"></path>
    <path d="M4 18h16c.55 0 1-.45 1-1s-.45-1-1-1H4c-.55 0-1 .45-1 1s.45 1 1 1zm0-5h16c.55 0 1-.45 1-1s-.45-1-1-1H4c-.55 0-1 .45-1 1s.45 1 1 1zM3 7c0 .55.45 1 1 1h16c.55 0 1-.45 1-1s-.45-1-1-1H4c-.55 0-1 .45-1 1z" fill="#404040"></path>
  </g>
</symbol></defs>    <use xlink:href="#ico-hamburger"></use>
  </svg>