<svg xmlns:xlink="http://www.w3.org/1999/xlink" xmlns="http://www.w3.org/2000/svg" width="11.826" height="16.557" viewBox="0 0 11.826 16.557"><path id="glassdoor-svgrepo-com" d="M12.89,14.192H3.43a2.364,2.364,0,0,0,2.363,2.365h7.1a2.365,2.365,0,0,0,2.365-2.365V4.479a.085.085,0,0,0-.086-.086H12.975a.086.086,0,0,0-.085.087v9.713ZM12.89,0a2.366,2.366,0,0,1,2.364,2.366H5.795v9.712a.087.087,0,0,1-.086.086H3.515a.086.086,0,0,1-.086-.086V2.365A2.366,2.366,0,0,1,5.793,0h7.1" transform="translate(-3.429)" fill="#fff" opacity="0.229"></path></svg>