<svg xmlns:xlink="http://www.w3.org/1999/xlink" xmlns="http://www.w3.org/2000/svg" width="16.301" height="16.301" viewBox="0 0 16.301 16.301"><g id="XMLID_13_" opacity="0.229"><path id="XMLID_17_" d="M11.445,0H4.856A4.862,4.862,0,0,0,0,4.856v6.589A4.862,4.862,0,0,0,4.856,16.3h6.589A4.862,4.862,0,0,0,16.3,11.445V4.856A4.862,4.862,0,0,0,11.445,0Zm3.216,11.445a3.216,3.216,0,0,1-3.216,3.216H4.856A3.216,3.216,0,0,1,1.64,11.445V4.856A3.216,3.216,0,0,1,4.856,1.64h6.589a3.216,3.216,0,0,1,3.216,3.216v6.589Z" fill="#FFFFFF"></path><path id="XMLID_81_" d="M137.216,133a4.216,4.216,0,1,0,4.216,4.216A4.221,4.221,0,0,0,137.216,133Zm0,6.792a2.576,2.576,0,1,1,2.576-2.576A2.576,2.576,0,0,1,137.216,139.792Z" transform="translate(-129.065 -129.065)" fill="#FFFFFF"></path><circle id="XMLID_83_" cx="1.01" cy="1.01" r="1.01" transform="translate(11.365 2.956)" fill="#FFFFFF"></circle></g></svg>