<svg xmlns="http://www.w3.org/2000/svg" xmlns:xlink="http://www.w3.org/1999/xlink" version="1.1" id="Warstwa_1" x="0px" y="0px" viewBox="0 0 32.1 41.9" style="enable-background:new 0 0 32.1 41.9;" xml:space="preserve" width="40"  height="52" >
<style type="text/css">
	.st0{clip-path:url(#SVGID_00000076574704476142864340000004402906024777640328_);}
	.st1{fill:none;stroke:#FFFFFF;stroke-width:1.5;stroke-miterlimit:10;}
	.st2{fill:#FFFFFF;}
</style>
    <g id="Group_89" transform="translate(0 0)">
	<g>
		<defs>
			<rect id="SVGID_1_" width="32.1" height="41.9"/>
		</defs>
        <clipPath id="SVGID_00000115478653913758197200000018302323818760118697_">
			<use xlink:href="#SVGID_1_" style="overflow:visible;"/>
		</clipPath>
        <g id="Group_88" style="clip-path:url(#SVGID_00000115478653913758197200000018302323818760118697_);">
			<rect id="Rectangle_343" x="0.8" y="0.8" class="st1" width="30.6" height="40.4"/>
            <path id="Path_254" class="st2" d="M20.9,29c2.1-4.1,0.5-9-3.6-11.1s-9-0.5-11.1,3.6s-0.5,9,3.6,11.1c2.4,1.2,5.2,1.2,7.5,0     l5.4,5.4c0.8,0.8,2.1,0.8,2.9,0c0,0,0,0,0,0l0.7-0.7c0.8-0.8,0.8-2.1,0-2.9L20.9,29z M13.5,32.3c-3.9,0-7-3.1-7-7     c0-3.9,3.1-7,7-7s7,3.1,7,7c0,1.9-0.7,3.6-2,4.9C17.2,31.5,15.4,32.3,13.5,32.3z M25.4,36.4l-0.7,0.7c-0.3,0.3-0.8,0.3-1.1,0     l-5.2-5.2c0.7-0.5,1.3-1.1,1.8-1.8l5.2,5.2C25.7,35.6,25.7,36.1,25.4,36.4C25.4,36.4,25.4,36.4,25.4,36.4z"/>
            <path id="Path_255" class="st2" d="M13.5,19.6c-3.2,0-5.7,2.6-5.7,5.7s2.6,5.7,5.7,5.7s5.7-2.6,5.7-5.7c0-1.5-0.6-3-1.7-4     C16.5,20.2,15,19.6,13.5,19.6z M13.5,29.7c-2.5,0-4.4-2-4.4-4.4c0-2.5,2-4.4,4.4-4.4c2.5,0,4.4,2,4.4,4.4c0,1.2-0.5,2.3-1.3,3.1     C15.8,29.3,14.7,29.7,13.5,29.7"/>
		</g>
	</g>
        <path class="st2" d="M3.3,10.8C3.6,11,4,11.3,4.5,11.3c0.7,0,1.2-0.5,1.2-1.2V5.2h1.6v5c0,1.8-1.1,2.6-2.6,2.6   c-0.8,0-1.5-0.2-2-0.7L3.3,10.8z"/>
        <path class="st2" d="M11.8,5c2.2,0,3.9,1.6,3.9,3.8s-1.6,3.8-3.9,3.8c-2.2,0-3.9-1.6-3.9-3.8S9.5,5,11.8,5z M11.8,6.4   c-1.4,0-2.2,1-2.2,2.4c0,1.4,0.9,2.4,2.2,2.4S14,10.2,14,8.9C14,7.5,13.1,6.4,11.8,6.4z"/>
        <path class="st2" d="M16.3,12.6V5.2h3.9c1.4,0,2.1,0.9,2.1,1.9c0,0.9-0.6,1.6-1.3,1.7c0.8,0.1,1.4,0.9,1.4,1.8c0,1.1-0.7,2-2.2,2   H16.3z M17.9,8.1h2c0.5,0,0.9-0.3,0.9-0.8c0-0.5-0.3-0.8-0.9-0.8h-2V8.1z M17.9,11.2h2c0.6,0,1-0.3,1-0.9c0-0.5-0.3-0.9-1-0.9h-2   V11.2z"/>
        <path class="st2" d="M24.1,10.3c0.5,0.5,1.3,1,2.4,1c0.9,0,1.3-0.4,1.3-0.8c0-0.6-0.6-0.7-1.5-0.9c-1.2-0.3-2.8-0.6-2.8-2.3   C23.5,6,24.6,5,26.3,5c1.2,0,2.2,0.4,2.9,1l-0.9,1.2c-0.6-0.6-1.4-0.8-2.1-0.8c-0.7,0-1.1,0.3-1.1,0.8c0,0.5,0.6,0.7,1.5,0.9   c1.2,0.3,2.8,0.6,2.8,2.3c0,1.4-1,2.4-3,2.4c-1.4,0-2.4-0.5-3.1-1.2L24.1,10.3z"/>
</g>
</svg>