<svg xmlns:xlink="http://www.w3.org/1999/xlink" xmlns="http://www.w3.org/2000/svg" width="13.813" height="13.813" viewBox="0 0 13.813 13.813"><path id="linkedin-in" d="M3.092,13.823H.228V4.6H3.092ZM1.659,3.343A1.666,1.666,0,1,1,3.317,1.669,1.673,1.673,0,0,1,1.659,3.343ZM13.81,13.823H10.953V9.334c0-1.07-.022-2.442-1.489-2.442-1.489,0-1.717,1.162-1.717,2.365v4.566H4.886V4.6H7.633V5.859h.04a3.009,3.009,0,0,1,2.71-1.489c2.9,0,3.431,1.909,3.431,4.388v5.066Z" transform="translate(0 -0.01)" fill="#FFFFFF" opacity="0.229"></path></svg>