<svg xmlns="http://www.w3.org/2000/svg" xmlns:xlink="http://www.w3.org/1999/xlink" viewBox="0 0 126.42 72.8" width="150"  height="86" >
    <defs>
        <clipPath id="clip-path" transform="translate(0)">
            <rect width="68.69" height="29.46" style="fill:none"/>
        </clipPath>
    </defs>
    <g id="Warstwa_2" data-name="Warstwa 2">
        <g id="Warstwa_1-2" data-name="Warstwa 1">
            <g id="WE_ARE_REBELS" data-name="WE ARE REBELS" style="isolation:isolate">
                <g style="isolation:isolate">
                    <path d="M25,39.16l-1.16-9.45-1.17,9.45H19L16.11,22.92h3.72L21,32.75l1.43-9.83h2.83l1.46,9.83,1.12-9.83h3.75l-2.9,16.24Z" transform="translate(0)" style="fill:#4f585f"/>
                    <path d="M32.89,39.16V22.92h7.64v3.21h-4V29.3h3.8v3.21h-3.8v3.43h4v3.22Z" transform="translate(0)" style="fill:#4f585f"/>
                    <path d="M52.71,39.16l-.42-2.63H49.08l-.42,2.63H45.09l3.48-16.24H52.8l3.48,16.24Zm-2-13-1.2,7.15h2.39Z" transform="translate(0)" style="fill:#4f585f"/>
                    <path d="M63.4,39.16l-1.59-5.7H61v5.7H57.36V22.92h5.09c2.75,0,4.74,2.16,4.74,5.13,0,2.73-1.14,4-2,4.53l2.17,6.58Zm-1.56-13H61v4.12h.81c1,0,1.6-.81,1.6-2.05S62.84,26.13,61.84,26.13Z" transform="translate(0)" style="fill:#4f585f"/>
                    <path d="M69.17,39.16V22.92h7.64v3.21h-4V29.3h3.8v3.21h-3.8v3.43h4v3.22Z" transform="translate(0)" style="fill:#4f585f"/>
                </g>
                <g style="isolation:isolate">
                    <path d="M28.84,72.27,26,62h-1.4V72.27H18V43h9.16c5,0,8.55,3.9,8.55,9.25,0,4.91-2.06,7.14-3.64,8.15l3.9,11.83ZM26,48.82H24.59v7.41H26c1.8,0,2.89-1.45,2.89-3.68S27.84,48.82,26,48.82Z" transform="translate(0)" style="fill:#4f585f"/>
                    <path d="M39.23,72.27V43H53v5.78H45.85v5.7h6.84v5.79H45.85v6.18H53v5.78Z" transform="translate(0)" style="fill:#4f585f"/>
                    <path d="M56.41,72.27V43h10c5.26,0,7.36,3.59,7.36,7.45,0,3.64-1.88,6-4.55,6.71,2.93.48,4.95,3.5,4.95,7.14,0,4.34-2.06,7.93-7.41,7.93ZM63,54.65h1.62c1.71,0,2.37-1.22,2.37-3.07s-.66-3-2.37-3H63Zm0,12.1h1.8c1.66,0,2.59-1.23,2.59-3.29,0-1.84-.93-3.28-2.59-3.28H63Z" transform="translate(0)" style="fill:#4f585f"/>
                    <path d="M77.32,72.27V43H91.08v5.78H83.94v5.7h6.84v5.79H83.94v6.18h7.14v5.78Z" transform="translate(0)" style="fill:#4f585f"/>
                    <path d="M94.5,72.27V43h6.62V66.49h7.15v5.78Z" transform="translate(0)" style="fill:#4f585f"/>
                    <path d="M112.21,64.6a6.57,6.57,0,0,0,4.87,2.33,2.43,2.43,0,0,0,2.58-2.55c0-1.84-1.53-2.85-3.37-4-2.68-1.71-6-3.77-6-9.2,0-4.43,3.07-8.59,8.86-8.59a10.25,10.25,0,0,1,6.92,2.49l-2.45,5.13a5.72,5.72,0,0,0-4.12-1.75A2.26,2.26,0,0,0,117,50.8c0,1.62,1.49,2.67,3.33,3.85,2.72,1.8,6,4,6,9.25s-3.42,8.9-8.76,8.9c-3.55,0-6.18-1-8.2-3Z" transform="translate(0)" style="fill:#4f585f"/>
                </g>
            </g>
            <g style="clip-path:url(#clip-path)">
                <g id="logo-cdr-horizontal-white-ee0281bd">
                    <path id="Path_86" data-name="Path 86" d="M5,26.26q.58-.65,1.23-1.23l-.36,0c-.31.28-.71.7-1.07,1.08S4,27,4,27a0,0,0,0,0,0,0l-1.13.31c-.5.13-.94.1-.94.42,0,0-.51.28-.39.68a5.23,5.23,0,0,1,1.9-.95s-.53.35-.48.82c0,0,.72-1.08,1.56-.43,0,0-.37-.51-.22-.79ZM3.37,13.5l-.14,0a.38.38,0,0,1-.35-.24l0,0-.11,0a.51.51,0,0,0,.63.33h0a.42.42,0,0,0,.17-.1A.54.54,0,0,0,3.68,13l-.26.08a.28.28,0,0,1,0,.13.36.36,0,0,1,0,.1l.11.07-.07.09-.1.05Zm10.34-.84L8.66,13.9h0l9.86-4.27-8.12,1,4.34-3.18L10.08,9.27l.71-1.41-3.33,2.4,0,0L12.15,0,4.47,9.09l0-5L1.6,10.76,1.45,8.81.06,13.89h0a1.65,1.65,0,0,1,.44-.22H.57l.07,0H1l.07,0a1.33,1.33,0,0,0,.88,0s.44.29.44.53h0s-.58,0-.58-.23A2.81,2.81,0,0,0,0,14.09L2.22,15s-.12-.42,0-.56.11-.07.23,0a.08.08,0,0,0,.08,0c.18-.18-.66-1.73-.66-1.73a1.85,1.85,0,0,0-1.4.61l-.13.15h0A3,3,0,0,1,1,12.72a2.15,2.15,0,0,1,.79-.42c.09-.21,0-.07.16-.18h0A6.28,6.28,0,0,1,3.38,9l.22-.24a2.45,2.45,0,0,0-.27.87A5.38,5.38,0,0,1,4,8.82H4v0a5.35,5.35,0,0,0-.52,1.55h0l1-.94h0a9.09,9.09,0,0,0-1.06,1.74h0L5,10.08H5s-.2.28-.28.42a.47.47,0,0,0-.06.15h0l.83-.36-.09.11-.32.31L5,10.81l-.57.57h0L4,11.83l-.28.28a1.16,1.16,0,0,0-.25.36.19.19,0,0,0,.1.19h0a.64.64,0,0,1,.26.28.69.69,0,0,1,.05.24.6.6,0,0,1-.18.42.63.63,0,0,1-.84,0,.65.65,0,0,0,.88.11l.7-.51,0,0,.72-.52a4.16,4.16,0,0,1,.47.71c-.43.4-1.15,1.11-1.88,1.87-.43.46-.86.94-1.23,1.4l.26-1.21,0-.1H2.7v0h0v0h0l0,0,0,0s0,0,0,0l0,0v0h0l0,0s0,0,0,0l0,0,0,0,0,0h0l0,0h0v0l0,0,0,0,0,0,0,0,0,0,0,0,0,0,0,0a.08.08,0,0,0,0,0l0,0,0,.05,0,0s0,.05-.05.08H2l-.06.08v0l0,.07v0l0,.05,0,0,0,.06s0,0,0,0a.61.61,0,0,1,0,.06l0,0,0,.06,0,0c-.05.11-.11.22-.17.33h0l-.28.05c.06-.14.11-.28.17-.4l-.46.65.46,0a9.4,9.4,0,0,0-.69,3.81L1,21a4.05,4.05,0,0,0,1.91,2.74h0A7.39,7.39,0,0,0,6,24.86l.32,0h.06a7.4,7.4,0,0,0,1.82,0v.07a.65.65,0,0,0,.48.71,15.89,15.89,0,0,0-1,2.18.57.57,0,0,1-.1.19,1.71,1.71,0,0,0-.3.09h0a1.32,1.32,0,0,0-.92,0h0a1.39,1.39,0,0,0-.67.64,1.39,1.39,0,0,1,.79-.35c-.32.19-.88.54-.94,1,0,0,1.93-1.35,2.89-1.1,0,0-.14.15.19.74l.15-.54c.17-.53-.49-.6-.77-.62H8l.08-.23a14,14,0,0,1,1-2s0,0,0,0L9,25.52l.09-.1A.84.84,0,0,0,9.21,25a1.51,1.51,0,0,0-.15-.59l.25-.11,0,.09v0l0,.07,0,0a.21.21,0,0,0,0,.06v0l1.42-.43-.31-.26h0L5.15,19h0c1.49.73,3.23,1.57,6.18,2.94S16.07,24,17,24.42l0,0h0l.36.14.4.16.06,0L7,17.29ZM6.21,15,4.59,16.18l1.16-2.54h0A6.63,6.63,0,0,1,6.2,15h0ZM12,23.74l0,.2h0l1.89,1.11.48.28-.27-.67a5.44,5.44,0,0,0,3.67.09h0C16.32,25.18,12.68,24,12,23.74Z" transform="translate(0)" style="fill:#db1018"/>
                    <path id="Path_87" data-name="Path 87" d="M1.81,14c0,.26.58.22.58.22,0-.23-.44-.52-.44-.52a1.36,1.36,0,0,1-.89,0,.89.89,0,0,0-.56,0,3.43,3.43,0,0,0-.5.43A2.81,2.81,0,0,1,1.81,14Zm3.94-.34L4.59,16.18,6.21,15a6.65,6.65,0,0,0-.46-1.32ZM17.8,24.74S14.17,23.38,5.14,19l5.38,4.9h0A1.33,1.33,0,0,1,12,24l0-.2C12.68,24,16.33,25.18,17.8,24.74ZM9.06,24.4a1.47,1.47,0,0,1,.15.59.76.76,0,0,1-.14.43.44.44,0,0,1-.08.11l.16.22A1,1,0,0,0,9.48,25a1.9,1.9,0,0,0-.17-.71ZM5.82,25l.49.06v-.13l-.48-.06ZM5.64,13.4a4.22,4.22,0,0,0-.48-.71L3.72,13.75a.67.67,0,0,1-.89-.12.62.62,0,0,0,1-.45.59.59,0,0,0,0-.23.64.64,0,0,0-.26-.28h0a.2.2,0,0,1-.1-.2,1.24,1.24,0,0,1,.25-.35h0l.71-.72h0l.64-.66.31-.31.1-.11-.84.36s0,0,.07-.16A4.78,4.78,0,0,1,5,10.09L3.42,11.2A8.69,8.69,0,0,1,4.48,9.45l-1,.94A5.11,5.11,0,0,1,4,8.82a5.38,5.38,0,0,0-.65.78,2.45,2.45,0,0,1,.27-.87,6.24,6.24,0,0,0-1.68,3.39c-.18.11-.07,0-.16.18A2.6,2.6,0,0,0,.34,13.47a1.86,1.86,0,0,1,1.54-.76s1,1.89.57,1.74-.23.59-.23.59l-.84-.36a2.48,2.48,0,0,1,.26,1.58,5.32,5.32,0,0,0-.5,1l.29,0c.06-.12.11-.23.17-.33a.05.05,0,0,1,0,0,.25.25,0,0,1,0-.07l0,0,0-.06,0,0,0-.06,0,0,0-.06,0,0,0-.06s0,0,0,0L2,16.26H2L2,16.19l0,0,0-.05s0,0,0,0l0-.05,0,0,0,0,0,0,0,0,0,0,0,0,0,0,0,0s0,0,0,0l0,0v0l0,0,0,0,0,0,0,0,0,0v0l0,0h0v0h0l0,0h0l0,0a0,0,0,0,0,0,0h.11l0,.09-.24,1.2A38.41,38.41,0,0,1,5.64,13.4Zm-2.89-.12.11,0,0,0a.38.38,0,0,0,.35.24.35.35,0,0,0,.14,0,.39.39,0,0,0,.17-.14l-.12-.07a.23.23,0,0,0,0-.11.27.27,0,0,0,0-.12L3.68,13a.49.49,0,0,1-.93.32Z" transform="translate(0)"/>
                    <path id="Path_88" data-name="Path 88" d="M26.38,15.32a2.83,2.83,0,0,0-.77-.07h-.72v4.11L25,19.3l.6-.42h0V17.7h.23a1.51,1.51,0,0,0,1-.33,1.18,1.18,0,0,0,.38-.9,1.15,1.15,0,0,0-.36-.87A1,1,0,0,0,26.38,15.32Zm-.61,1.79h-.19V15.85h.21c.55,0,.83.2.83.61S26.34,17.11,25.77,17.11Zm4.47.49a1.11,1.11,0,0,0,.6-.39,1.13,1.13,0,0,0,.25-.75,1.08,1.08,0,0,0-.4-.9,1.73,1.73,0,0,0-1.17-.31h-.75v4.11l.08-.06.6-.42h0V17.69h0l1.12,1.6,0,0,0,0,.48-.35,0,0,0,0Zm-.77-.49V15.85h.21c.55,0,.83.2.83.61s-.29.65-.85.65ZM19.8,15.37a3.09,3.09,0,0,0-1-.12H18v4.06h.87a3.27,3.27,0,0,0,.94-.11A2.07,2.07,0,0,0,21,16.54a2.18,2.18,0,0,0-.5-.77,1.92,1.92,0,0,0-.69-.4Zm.2,2.92a1.23,1.23,0,0,1-.47.27,2.37,2.37,0,0,1-.65.09h-.22V15.91h.22a1.55,1.55,0,0,1,1.12.35,1.42,1.42,0,0,1,0,2Zm-4.57-2.46a1.52,1.52,0,0,1,.75.22l.05,0,0,0,.29-.5,0,0,0,0a2.19,2.19,0,0,0-1.06-.29,2.07,2.07,0,0,0-1.63.74,2.1,2.1,0,0,0-.52,1.39,2.08,2.08,0,0,0,2.1,2.08,2.2,2.2,0,0,0,1.1-.29l0,0v0h0l-.29-.51,0,0-.05,0a1.67,1.67,0,0,1-.23.12,1.34,1.34,0,0,1-.52.1,1.38,1.38,0,0,1-1-.42,1.36,1.36,0,0,1-.4-1,1.43,1.43,0,0,1,.4-1,1.38,1.38,0,0,1,1-.42Zm45.79.08v0l.55-.56.08-.08H59.51v4.06h1.72v0l.54-.56.08-.08H60.2V17.38h.53l.56-.56.08-.09H60.2v-.81Zm-11.92,0h.91v3.44l.08-.05.59-.42,0,0V15.91h.91v-.66H49.3v.66Zm-14.73-.74A2.12,2.12,0,0,0,33,18.75l.1.09a2.13,2.13,0,0,0,2.92-.07,2,2,0,0,0,.63-1.49,2.13,2.13,0,0,0-2.11-2.11Zm1,3.13a1.35,1.35,0,0,1-1,.42,1.45,1.45,0,0,1,0-2.89,1.38,1.38,0,0,1,1,.42,1.4,1.4,0,0,1,.41,1,1.43,1.43,0,0,1-.41,1ZM66,15.77a1.88,1.88,0,0,0-.7-.4,3.06,3.06,0,0,0-.95-.12h-.88v4.06h.87a3.38,3.38,0,0,0,1-.11,2.08,2.08,0,0,0,1.21-2.67,2.06,2.06,0,0,0-.5-.76Zm-.5,2.52a1.16,1.16,0,0,1-.47.27,2,2,0,0,1-.65.09h-.22V15.91h.22a1.59,1.59,0,0,1,1.13.35,1.29,1.29,0,0,1,.41,1,1.26,1.26,0,0,1-.42,1Zm-8.69-.69a1.12,1.12,0,0,0,.59-.39,1.13,1.13,0,0,0,.25-.75,1.11,1.11,0,0,0-.4-.9,1.75,1.75,0,0,0-1.17-.31h-.75v4.11l.08-.06.6-.42h0V17.69h0l1.12,1.6,0,0,0,0,.48-.35,0,0,0,0Zm-.78-.49V15.85h.21c.55,0,.83.2.83.61s-.28.65-.85.65Zm-8.66-1.85-1.45,1.49V15.19l-.08.06-.6.42,0,0v3.66l.08-.06.6-.42h0V17.64l.07-.07,1.39,1.72,0,0,0,0L48,19l0,0,0-.05L46.5,17.1l1.76-1.76.09-.09h-1Zm-8.57.42h0v2.17a1.59,1.59,0,0,1-.1.68.32.32,0,0,1-.33.17.62.62,0,0,1-.37-.13l0,0,0,0-.3.51,0,0,0,0a1.43,1.43,0,0,0,.73.2,1,1,0,0,0,.83-.37,1.07,1.07,0,0,0,.23-.45,3.26,3.26,0,0,0,.07-.7V15.19l-.08.06Zm4.29.23v0l.55-.56.08-.09H41.41v4.07h1.71l0,0,.54-.56.08-.08H42.1V17.38h.52l.56-.56.08-.09H42.1V15.9Z" transform="translate(0)" style="fill:#fff"/>
                    <path id="Path_89" data-name="Path 89" d="M68,16.59a.71.71,0,1,1,.71-.71.71.71,0,0,1-.71.71Zm0-1.31a.61.61,0,1,0,0,1.21.6.6,0,0,0,.6-.61h0a.59.59,0,0,0-.59-.6Zm.19,1L68,16h-.14v.32h-.11v-.81H68a.24.24,0,0,1,.26.24h0a.23.23,0,0,1-.2.24l.21.32ZM68,15.58h-.22v.29H68a.15.15,0,0,0,.14-.15A.14.14,0,0,0,68,15.58Z" transform="translate(0)" style="fill:#fff"/>
                </g>
            </g>
        </g>
    </g>
</svg>