<svg xmlns:xlink="http://www.w3.org/1999/xlink" xmlns="http://www.w3.org/2000/svg" id="Group_80" data-name="Group 80" width="120.433" height="191.589" viewBox="0 0 120.433 191.589">
    <path id="Path_247" data-name="Path 247" d="M32.475,170.744a102.666,102.666,0,0,1,7.98-7.938c-.547-.046-1.412-.152-2.354-.3-2.027,1.853-4.617,4.546-6.933,7.028-2.938,3.172-5.361,5.935-5.361,5.949-.038.022-.053.077-.091.107-1.921.53-5.179,1.426-7.35,2.011-3.212.888-6.1.676-6.1,2.77,0,0-3.326,1.782-2.551,4.439,0,0,6.674-5.327,12.384-6.229,0,0-3.485,2.268-3.174,5.343,0,0,4.7-7.028,10.19-2.763,0,0-2.445-3.324-1.427-5.152C28.58,175.023,30.395,172.982,32.475,170.744ZM21.906,87.755a2.145,2.145,0,0,1-.9.175,2.472,2.472,0,0,1-2.278-1.556.969.969,0,0,1-.1-.273l-.721.243A3.267,3.267,0,0,0,22,88.513a3.019,3.019,0,0,0,1.078-.653,3.39,3.39,0,0,0,.828-3.567l-1.663.569a1.964,1.964,0,0,1,.175.789,1.654,1.654,0,0,1-.137.675l.759.463a2.586,2.586,0,0,1-.486.562A1.97,1.97,0,0,1,21.906,87.755Zm67.236-5.38-32.817,8v-.038l.008.038,64.1-27.721L67.609,69.117,95.885,48.476,65.581,60.3l4.579-9.175-21.678,15.6L48.3,66.4,79.029,0,29.059,59.115l-.311-32.229L10.41,69.967l-.957-12.7L.418,90.3.433,90.3V90.3a10.275,10.275,0,0,1,2.855-1.4c.129-.038.266-.068.395-.106.015,0,.03-.015.053-.015.129-.03.266-.061.395-.084.015,0,.038-.015.061-.015a3.484,3.484,0,0,1,.418-.053V88.62c.144-.015.281-.015.41-.03H5.1a1.988,1.988,0,0,1,.425,0,.131.131,0,0,1,.053.015,2.2,2.2,0,0,1,.38.03.208.208,0,0,0,.068.008,3.156,3.156,0,0,1,.4.076.568.568,0,0,1,.084.015c.137.038.281.076.433.121a8.451,8.451,0,0,0,5.718,0s2.916,1.867,2.916,3.43h-.008v.008s-3.827.228-3.827-1.472c0,0-4.9-1.738-11.746.8l14.45,6.207c-.008-.068-.775-2.755.061-3.688.266-.326.729-.433,1.458-.19a.546.546,0,0,0,.577-.046c1.124-1.161-4.328-11.216-4.328-11.216A12,12,0,0,0,3.09,86.639c-.281.3-.569.607-.843.949v0A18.8,18.8,0,0,1,6.34,82.754a13.869,13.869,0,0,1,5.133-2.762c.562-1.343-.152-.47,1-1.176.008,0,.008-.015.008-.015a41.183,41.183,0,0,1,9.484-20.489c.463-.516.942-1.04,1.45-1.54,0,0-1.777,3.339-1.777,5.661a38.786,38.786,0,0,1,4.229-5.092v-.008a.529.529,0,0,0-.061.106c-.448.964-3.751,8.013-3.409,10.07a.109.109,0,0,1,.015.046L29.1,61.437a.3.3,0,0,0-.03.023c-.2.266-6.272,8.477-6.872,11.292v.023l10.114-7.217-.008.015c-.03.061-1.276,1.783-1.792,2.732a2.984,2.984,0,0,0-.425.979l.015.053L35.543,67s-.235.281-.615.7L32.9,69.754l-.5.531L28.717,74l-.068.084-2.8,2.846-1.8,1.829A8.494,8.494,0,0,0,22.4,81.084a1.284,1.284,0,0,0,.653,1.26h-.008a4.043,4.043,0,0,1,1.708,1.836,3.88,3.88,0,0,1,.3,1.525,3.775,3.775,0,0,1-1.169,2.74,4.1,4.1,0,0,1-5.475.19c.122.167,2.111,2.664,5.771.721L28.7,86.062l.2-.152,4.67-3.415a26.294,26.294,0,0,1,3.083,4.637c-2.772,2.633-7.5,7.2-12.225,12.2-2.817,2.967-5.626,6.109-8.018,9.076l1.686-7.907.137-.653s-.008,0-.008.015a.337.337,0,0,0-.046.015c0,.008-.023.023-.023.023-.015.008-.038.008-.046.038a.024.024,0,0,0-.023.023.428.428,0,0,0-.061.03.08.08,0,0,1-.046.038.527.527,0,0,1-.068.046.353.353,0,0,1-.053.053c-.023.023-.031.038-.068.046a.575.575,0,0,1-.068.068c-.023.015-.053.053-.084.061a.18.18,0,0,1-.076.076.523.523,0,0,0-.1.084.708.708,0,0,0-.076.076.329.329,0,0,0-.106.1c-.046.015-.061.046-.106.068a.408.408,0,0,1-.114.114,1.179,1.179,0,0,1-.1.091.7.7,0,0,0-.129.129.573.573,0,0,1-.106.083.481.481,0,0,1-.152.152,1,1,0,0,0-.091.083.529.529,0,0,1-.1.084c0,.015-.008.015-.008.015-.046.046-.106.106-.159.167a.434.434,0,0,0-.114.121,1.488,1.488,0,0,0-.159.152l-.129.129c-.038.053-.084.091-.106.129a.463.463,0,0,0-.061.061c0,.008-.015.023-.038.038l-.1.1c-.046.053-.084.091-.129.144a.049.049,0,0,1-.038.038.33.33,0,0,1-.053.046.309.309,0,0,1-.091.106,1.038,1.038,0,0,1-.175.19c-.046.068-.1.114-.144.182s-.121.137-.175.2-.1.122-.152.182c-.068.076-.121.152-.19.228-.046.061-.1.121-.152.19-.061.084-.121.152-.19.243a1.928,1.928,0,0,0-.152.182c-.068.1-.137.182-.213.281a2.259,2.259,0,0,0-.137.182c-.084.114-.175.228-.266.341-.03.046-.076.1-.1.137-.121.167-.258.341-.372.524l-.015.015c-.121.174-.243.341-.357.516a1.908,1.908,0,0,1-.106.159c-.084.129-.175.266-.266.4-.046.068-.084.129-.129.2-.084.129-.159.25-.251.379-.046.084-.084.152-.129.228-.068.129-.159.266-.243.4-.038.084-.091.159-.129.243-.084.129-.152.273-.243.4-.046.068-.1.167-.144.243-.084.152-.159.288-.243.433-.038.084-.084.167-.129.258-.372.683-.737,1.389-1.1,2.155v.015l-1.86.311c.372-.956.737-1.829,1.139-2.648l-3.03,4.265,3.03-.3c-2.589,5.957-4.5,13.743-4.5,24.838L6.553,136.7a26.443,26.443,0,0,0,12.392,17.826l-.015-.076a48.525,48.525,0,0,0,20.023,7.277c1.048.129,1.9.212,2.088.228.008,0,.008,0,.008-.008a3.721,3.721,0,0,0,.387.038,51.274,51.274,0,0,0,11.86-.342c-.008.144-.023.288-.023.433,0,2.45,1.367,4.469,3.106,4.637a97.633,97.633,0,0,0-6.469,14.161,3.387,3.387,0,0,1-.706,1.259,17.365,17.365,0,0,0-1.921.546l.015-.014c-.327-.319-3.144-.85-6.021.227a.07.07,0,0,0,.023.03,8.756,8.756,0,0,0-4.305,4.167c1.169-.941,3.348-2.474,5.118-2.262-2.1,1.2-5.725,3.475-6.143,6.761,0,0,12.6-8.832,18.8-7.2,0,0-.9,1.025,1.238,4.843l.972-3.544c1.124-3.445-3.189-3.955-5-4.022a.141.141,0,0,0,.008-.046s.2-.554.554-1.465a87.462,87.462,0,0,1,6.287-13.2,2.185,2.185,0,0,0,.114-.281l-.509-.7a6.12,6.12,0,0,0,.562-.69,5.345,5.345,0,0,0,.873-2.824,9.277,9.277,0,0,0-.964-3.847l1.617-.744c.084.2.175.395.258.577.023.068.046.129.068.19.046.129.1.265.144.395.023.061.046.129.076.2.046.144.084.273.137.41.008.038.03.092.046.144l9.218-2.785-2.042-1.685h-.015l-.091-.091-.046-.038-34.86-31.728c.008,0,.015.015.015.015l-.008-.015c9.689,4.712,20.995,10.191,40.167,19.07,18.892,8.7,30.851,13.773,37.024,16.3.053.03.106.053.152.076h.008l2.316.941c1.321.516,2.559.993,2.627,1.024.106-.061.228-.091.334-.144L45.566,112.41ZM40.372,97.263l-10.509,7.983L37.4,88.673v-.015a46,46,0,0,1,2.976,8.6h-.008Zm37.51,57.15.266,1.26H78.14l12.278,7.239,3.106,1.806-1.7-4.371c10.129,2.984,18.383,3.15,23.865.57,0,0-.008,0-.008.006C106.143,163.739,82.461,155.764,77.882,154.413Z" fill="#db0d15"/>
    <path id="Path_248" data-name="Path 248" d="M11.759,69.606c0,1.692,3.827,1.472,3.827,1.472,0-1.556-2.908-3.43-2.908-3.43a8.543,8.543,0,0,1-5.733,0,5.77,5.77,0,0,0-3.652.038A28.986,28.986,0,0,0,0,70.425C6.861,67.868,11.759,69.606,11.759,69.606ZM37.4,67.435l-7.54,16.573L40.37,76.018A45.839,45.839,0,0,0,37.4,67.435Zm78.345,72.228s-23.6-8.848-82.324-37.4l35,31.857h.015c3.136-1.3,5.338-2.223,9.7.326l-.258-1.26C82.45,134.526,106.216,142.54,115.746,139.663ZM58.919,137.41a9.278,9.278,0,0,1,.964,3.848,5.265,5.265,0,0,1-.873,2.822,8.326,8.326,0,0,1-.562.692l1.048,1.434a6.124,6.124,0,0,0,2.156-4.948,11.035,11.035,0,0,0-1.124-4.6Zm-21.063,3.825c1.663.265,3.181.4,3.181.4l.076-.882s-1.488-.128-3.113-.395Zm-1.2-75.3A26.033,26.033,0,0,0,33.574,61.3L24.2,68.164c-3.789,2-5.786-.736-5.786-.736a4.055,4.055,0,0,0,2.642.964A3.97,3.97,0,0,0,25.077,64.5a3.808,3.808,0,0,0-.311-1.51,3.95,3.95,0,0,0-1.708-1.844l.015-.008a1.284,1.284,0,0,1-.653-1.26,8.331,8.331,0,0,1,1.648-2.322l-.008.008,4.609-4.682.068-.083,4.184-4.25,2.027-2.057c.38-.41.607-.683.607-.683L30.1,48.13s-.106-.061.425-1.032,1.807-2.747,1.807-2.747L22.214,51.568c.585-2.831,6.91-11.322,6.91-11.322l-6.682,6.109C21.994,44.222,25.9,36.132,25.9,36.132a36.526,36.526,0,0,0-4.229,5.107c0-2.337,1.769-5.676,1.769-5.676a40.67,40.67,0,0,0-10.926,22.03c-1.177.736-.456-.159-1.017,1.191-5.444,1.54-8.535,6.39-9.241,7.6,4.419-5.449,9.977-4.9,9.977-4.9s6.636,12.263,3.751,11.277c-2.916-1.009-1.519,3.87-1.519,3.87L9.025,74.28c.9,1.776,2.658,5.949,1.648,10.29a33.194,33.194,0,0,0-3.212,6.321l1.86-.311c.364-.781.721-1.487,1.086-2.163a2.184,2.184,0,0,0,.144-.258c.076-.144.152-.281.243-.425.046-.083.1-.175.144-.258.076-.129.144-.266.228-.395.053-.091.106-.167.144-.25.084-.129.152-.266.243-.387a1.529,1.529,0,0,1,.129-.22c.084-.129.167-.266.251-.395a1.514,1.514,0,0,1,.129-.2,4,4,0,0,1,.266-.395.9.9,0,0,1,.106-.167c.114-.175.235-.341.357-.509,0-.008.015-.023.015-.023.121-.182.243-.341.357-.508.038-.038.076-.1.114-.144.091-.121.167-.228.258-.349a.993.993,0,0,1,.144-.167c.061-.091.129-.19.205-.288a1.607,1.607,0,0,0,.152-.182c.068-.083.129-.167.2-.243.046-.061.106-.122.152-.182.068-.083.121-.152.182-.228.061-.061.1-.121.152-.182a2.481,2.481,0,0,1,.182-.2c.046-.061.1-.114.144-.167.061-.076.121-.129.167-.2.053-.046.1-.114.152-.159.053-.061.106-.114.167-.174.046-.061.084-.091.129-.152.061-.061.114-.114.167-.174a.85.85,0,0,0,.129-.144,1.554,1.554,0,0,1,.159-.152,1.578,1.578,0,0,1,.114-.122c.053-.053.106-.121.159-.167.046-.03.068-.068.106-.091.091-.091.159-.159.235-.243a.574.574,0,0,0,.106-.084,1.048,1.048,0,0,1,.129-.129,1.111,1.111,0,0,1,.1-.091.4.4,0,0,0,.114-.114c.046-.023.061-.046.106-.068a.331.331,0,0,1,.106-.1c.023-.023.046-.061.076-.076a.954.954,0,0,0,.1-.084.178.178,0,0,0,.076-.076c.03-.008.053-.038.083-.061a.194.194,0,0,0,.068-.068.12.12,0,0,0,.068-.046.177.177,0,0,0,.053-.053.216.216,0,0,0,.068-.046.079.079,0,0,0,.046-.038.229.229,0,0,1,.061-.03.024.024,0,0,1,.023-.023c.008-.023.03-.023.046-.038,0,0,.023-.015.023-.023.015-.015.023-.015.046-.015,0-.015.008-.015.008-.015l-.137.653L16.413,87.2C22.8,79.3,32.222,70.122,36.656,65.933ZM17.9,65.106l.729-.243a1.058,1.058,0,0,0,.1.273,2.472,2.472,0,0,0,2.278,1.556,2.147,2.147,0,0,0,.9-.174,2.422,2.422,0,0,0,1.131-.956l-.759-.455a1.581,1.581,0,0,0,.137-.69,1.968,1.968,0,0,0-.175-.789l1.663-.569a3.176,3.176,0,1,1-6,2.049Z" transform="translate(0.003 21.237)"/>
</svg>