<svg version="1.1" id="Warstwa_1" xmlns="http://www.w3.org/2000/svg" xmlns:xlink="http://www.w3.org/1999/xlink" x="0px" y="0px" viewBox="0 0 8.5 15.8" style="enable-background:new 0 0 8.5 15.8;" xml:space="preserve" width="15"  height="28" ><style type="text/css">
	.st0{opacity:0.229;enable-background:new    ;}
	.st1{fill:#FFFFFF;}
</style><g id="Tiktok_Black_Icon" transform="translate(-194.299 -38.4)" class="st0" fill="#FFFFFF"><path id="Path_251" class="st1" d="M202.8,43.9c-1.3,0-2.4-1.1-2.4-2.4h-1.6v4.3v2.4c0,0.6-0.4,1.2-1,1.4c-0.2,0.1-0.3,0.1-0.5,0.1
		c-0.8,0-1.4-0.7-1.3-1.5c0-0.7,0.7-1.3,1.4-1.3c0.2,0,0.3,0,0.4,0.1v-1.6c-1-0.2-2,0.2-2.7,1c-1.1,1.2-1,3,0.1,4.1
		c0.1,0.1,0.2,0.2,0.3,0.2c1.2,0.9,2.9,0.8,4-0.2c0.6-0.6,0.9-1.3,0.9-2.1l0-3.5c0.3,0.2,0.6,0.4,0.9,0.5c0.5,0.2,1,0.3,1.6,0.3
		L202.8,43.9L202.8,43.9L202.8,43.9z" fill="#FFFFFF"></path></g></svg>