<svg xmlns:xlink="http://www.w3.org/1999/xlink" xmlns="http://www.w3.org/2000/svg" width="17.153" height="13.931" viewBox="0 0 17.153 13.931"><path id="twitter" d="M15.39,51.554c.011.152.011.3.011.457a9.934,9.934,0,0,1-10,10A9.934,9.934,0,0,1,0,60.435a7.273,7.273,0,0,0,.849.044,7.04,7.04,0,0,0,4.364-1.5,3.522,3.522,0,0,1-3.287-2.438,4.433,4.433,0,0,0,.664.054,3.718,3.718,0,0,0,.925-.12A3.516,3.516,0,0,1,.7,53.023V52.98a3.541,3.541,0,0,0,1.589.446,3.521,3.521,0,0,1-1.088-4.7A9.993,9.993,0,0,0,8.446,52.4a3.969,3.969,0,0,1-.087-.805,3.519,3.519,0,0,1,6.084-2.405,6.921,6.921,0,0,0,2.231-.849,3.506,3.506,0,0,1-1.546,1.937,7.047,7.047,0,0,0,2.024-.544,7.557,7.557,0,0,1-1.763,1.818Z" transform="translate(0 -48.082)" fill="#fff" opacity="0.229"></path></svg>