<svg xmlns:xlink="http://www.w3.org/1999/xlink" xmlns="http://www.w3.org/2000/svg" width="16.821" height="11.838" viewBox="0 0 16.821 11.838"><g id="XMLID_822_" transform="translate(0 -45.917)" opacity="0.229"><path id="XMLID_823_" d="M16.166,46.933c-.607-.722-1.728-1.016-3.869-1.016H4.525c-2.19,0-3.33.313-3.935,1.082C0,47.748,0,48.852,0,50.38v2.912c0,2.96.7,4.463,4.525,4.463H12.3c1.857,0,2.885-.26,3.551-.9.683-.653.974-1.72.974-3.566V50.38C16.821,48.769,16.776,47.658,16.166,46.933Zm-5.366,5.3L7.27,54.083a.543.543,0,0,1-.794-.481V49.925a.543.543,0,0,1,.793-.482L10.8,51.276a.543.543,0,0,1,0,.963Z" fill="#FFFFFF"></path></g></svg>